<mxfile host="app.diagrams.net" modified="2024-04-07T01:19:02.970Z" agent="Mozilla/5.0 (Windows NT 10.0; Win64; x64) AppleWebKit/537.36 (KHTML, like Gecko) Chrome/123.0.0.0 Safari/537.36" etag="YYwNUXruoLtDfypZBgPj" version="24.2.2" type="github">
  <diagram name="fnf" id="93xCEXEtKRH_4ZxrSMZW">
    <mxGraphModel dx="2049" dy="1114" grid="1" gridSize="10" guides="1" tooltips="1" connect="1" arrows="1" fold="1" page="1" pageScale="1" pageWidth="850" pageHeight="1100" math="0" shadow="0">
      <root>
        <mxCell id="0" />
        <mxCell id="1" parent="0" />
        <mxCell id="WuL_R7JAxQXP5A3d2cyv-1" value="" style="rounded=0;whiteSpace=wrap;html=1;" vertex="1" parent="1">
          <mxGeometry x="250" y="230" width="340" height="640" as="geometry" />
        </mxCell>
        <mxCell id="WuL_R7JAxQXP5A3d2cyv-2" value="LOGIN" style="text;html=1;align=center;verticalAlign=middle;whiteSpace=wrap;rounded=0;" vertex="1" parent="1">
          <mxGeometry x="395" y="250" width="60" height="30" as="geometry" />
        </mxCell>
        <mxCell id="WuL_R7JAxQXP5A3d2cyv-3" value="confirmar la creacion de perfil" style="ellipse;whiteSpace=wrap;html=1;" vertex="1" parent="1">
          <mxGeometry x="365" y="780" width="120" height="60" as="geometry" />
        </mxCell>
        <mxCell id="WuL_R7JAxQXP5A3d2cyv-4" value="enviar correo de verificacion" style="ellipse;whiteSpace=wrap;html=1;" vertex="1" parent="1">
          <mxGeometry x="365" y="710" width="120" height="60" as="geometry" />
        </mxCell>
        <mxCell id="WuL_R7JAxQXP5A3d2cyv-5" value="proporcionar datos&amp;nbsp;&lt;div&gt;de registro&lt;/div&gt;" style="ellipse;whiteSpace=wrap;html=1;" vertex="1" parent="1">
          <mxGeometry x="365" y="640" width="120" height="60" as="geometry" />
        </mxCell>
        <mxCell id="WuL_R7JAxQXP5A3d2cyv-6" value="indentificar tipo de usuario" style="ellipse;whiteSpace=wrap;html=1;" vertex="1" parent="1">
          <mxGeometry x="365" y="570" width="120" height="60" as="geometry" />
        </mxCell>
        <mxCell id="WuL_R7JAxQXP5A3d2cyv-7" value="verificar correo" style="ellipse;whiteSpace=wrap;html=1;" vertex="1" parent="1">
          <mxGeometry x="365" y="500" width="120" height="60" as="geometry" />
        </mxCell>
        <mxCell id="WuL_R7JAxQXP5A3d2cyv-8" value="vincular con correo&lt;div&gt;o red&lt;/div&gt;" style="ellipse;whiteSpace=wrap;html=1;" vertex="1" parent="1">
          <mxGeometry x="365" y="430" width="120" height="60" as="geometry" />
        </mxCell>
        <mxCell id="WuL_R7JAxQXP5A3d2cyv-9" value="crear password" style="ellipse;whiteSpace=wrap;html=1;" vertex="1" parent="1">
          <mxGeometry x="365" y="360" width="120" height="60" as="geometry" />
        </mxCell>
        <mxCell id="WuL_R7JAxQXP5A3d2cyv-10" value="crear usuario" style="ellipse;whiteSpace=wrap;html=1;" vertex="1" parent="1">
          <mxGeometry x="365" y="290" width="120" height="60" as="geometry" />
        </mxCell>
        <mxCell id="WuL_R7JAxQXP5A3d2cyv-12" value="" style="rounded=0;whiteSpace=wrap;html=1;" vertex="1" parent="1">
          <mxGeometry x="1105" y="225" width="340" height="650" as="geometry" />
        </mxCell>
        <mxCell id="WuL_R7JAxQXP5A3d2cyv-13" value="PERFIL" style="text;html=1;align=center;verticalAlign=middle;whiteSpace=wrap;rounded=0;" vertex="1" parent="1">
          <mxGeometry x="1245" y="250" width="60" height="30" as="geometry" />
        </mxCell>
        <mxCell id="WuL_R7JAxQXP5A3d2cyv-14" value="cambiar nombre de&amp;nbsp;&lt;div&gt;usuario&lt;/div&gt;" style="ellipse;whiteSpace=wrap;html=1;" vertex="1" parent="1">
          <mxGeometry x="1215" y="780" width="120" height="60" as="geometry" />
        </mxCell>
        <mxCell id="WuL_R7JAxQXP5A3d2cyv-15" value="poner especialidad" style="ellipse;whiteSpace=wrap;html=1;" vertex="1" parent="1">
          <mxGeometry x="1215" y="710" width="120" height="60" as="geometry" />
        </mxCell>
        <mxCell id="WuL_R7JAxQXP5A3d2cyv-16" value="barra de progreso" style="ellipse;whiteSpace=wrap;html=1;" vertex="1" parent="1">
          <mxGeometry x="1215" y="640" width="120" height="60" as="geometry" />
        </mxCell>
        <mxCell id="WuL_R7JAxQXP5A3d2cyv-17" value="crear avatar" style="ellipse;whiteSpace=wrap;html=1;" vertex="1" parent="1">
          <mxGeometry x="1215" y="570" width="120" height="60" as="geometry" />
        </mxCell>
        <mxCell id="WuL_R7JAxQXP5A3d2cyv-18" value="cambiar foto de perfil" style="ellipse;whiteSpace=wrap;html=1;" vertex="1" parent="1">
          <mxGeometry x="1215" y="500" width="120" height="60" as="geometry" />
        </mxCell>
        <mxCell id="WuL_R7JAxQXP5A3d2cyv-19" value="quitar foto de perfil" style="ellipse;whiteSpace=wrap;html=1;" vertex="1" parent="1">
          <mxGeometry x="1215" y="430" width="120" height="60" as="geometry" />
        </mxCell>
        <mxCell id="WuL_R7JAxQXP5A3d2cyv-20" value="poner informacion&lt;div&gt;&amp;nbsp;del perfil&lt;/div&gt;" style="ellipse;whiteSpace=wrap;html=1;" vertex="1" parent="1">
          <mxGeometry x="1215" y="360" width="120" height="60" as="geometry" />
        </mxCell>
        <mxCell id="WuL_R7JAxQXP5A3d2cyv-21" value="poner foto de perfil" style="ellipse;whiteSpace=wrap;html=1;" vertex="1" parent="1">
          <mxGeometry x="1215" y="290" width="120" height="60" as="geometry" />
        </mxCell>
        <mxCell id="WuL_R7JAxQXP5A3d2cyv-22" value="" style="rounded=0;whiteSpace=wrap;html=1;" vertex="1" parent="1">
          <mxGeometry x="1955" y="225" width="340" height="495" as="geometry" />
        </mxCell>
        <mxCell id="WuL_R7JAxQXP5A3d2cyv-23" value="" style="rounded=0;whiteSpace=wrap;html=1;" vertex="1" parent="1">
          <mxGeometry x="2805" y="230" width="340" height="570" as="geometry" />
        </mxCell>
        <mxCell id="WuL_R7JAxQXP5A3d2cyv-24" value="BARRA DE PROGRESO" style="text;html=1;align=center;verticalAlign=middle;whiteSpace=wrap;rounded=0;" vertex="1" parent="1">
          <mxGeometry x="2010" y="250" width="240" height="30" as="geometry" />
        </mxCell>
        <mxCell id="WuL_R7JAxQXP5A3d2cyv-25" value="seleccionar vista porcentaje" style="ellipse;whiteSpace=wrap;html=1;" vertex="1" parent="1">
          <mxGeometry x="2065" y="500" width="120" height="60" as="geometry" />
        </mxCell>
        <mxCell id="WuL_R7JAxQXP5A3d2cyv-26" value="avisar porcentaje aumentado" style="ellipse;whiteSpace=wrap;html=1;" vertex="1" parent="1">
          <mxGeometry x="2065" y="430" width="120" height="60" as="geometry" />
        </mxCell>
        <mxCell id="WuL_R7JAxQXP5A3d2cyv-27" value="proporcionar porcentaje" style="ellipse;whiteSpace=wrap;html=1;" vertex="1" parent="1">
          <mxGeometry x="2065" y="360" width="120" height="60" as="geometry" />
        </mxCell>
        <mxCell id="WuL_R7JAxQXP5A3d2cyv-28" value="revisar porcentaje" style="ellipse;whiteSpace=wrap;html=1;" vertex="1" parent="1">
          <mxGeometry x="2065" y="290" width="120" height="60" as="geometry" />
        </mxCell>
        <mxCell id="WuL_R7JAxQXP5A3d2cyv-29" value="ayudar a umentar porcentaje" style="ellipse;whiteSpace=wrap;html=1;" vertex="1" parent="1">
          <mxGeometry x="2065" y="570" width="120" height="60" as="geometry" />
        </mxCell>
        <mxCell id="WuL_R7JAxQXP5A3d2cyv-30" value="" style="rounded=0;whiteSpace=wrap;html=1;" vertex="1" parent="1">
          <mxGeometry x="3655" y="225" width="340" height="465" as="geometry" />
        </mxCell>
        <mxCell id="WuL_R7JAxQXP5A3d2cyv-31" value="" style="ellipse;whiteSpace=wrap;html=1;" vertex="1" parent="1">
          <mxGeometry x="2915" y="710" width="120" height="60" as="geometry" />
        </mxCell>
        <mxCell id="WuL_R7JAxQXP5A3d2cyv-32" value="" style="ellipse;whiteSpace=wrap;html=1;" vertex="1" parent="1">
          <mxGeometry x="2915" y="640" width="120" height="60" as="geometry" />
        </mxCell>
        <mxCell id="WuL_R7JAxQXP5A3d2cyv-33" value="" style="ellipse;whiteSpace=wrap;html=1;" vertex="1" parent="1">
          <mxGeometry x="2915" y="570" width="120" height="60" as="geometry" />
        </mxCell>
        <mxCell id="WuL_R7JAxQXP5A3d2cyv-34" value="crear acti" style="ellipse;whiteSpace=wrap;html=1;" vertex="1" parent="1">
          <mxGeometry x="2915" y="500" width="120" height="60" as="geometry" />
        </mxCell>
        <mxCell id="WuL_R7JAxQXP5A3d2cyv-35" value="desarrollar actividad" style="ellipse;whiteSpace=wrap;html=1;" vertex="1" parent="1">
          <mxGeometry x="2915" y="430" width="120" height="60" as="geometry" />
        </mxCell>
        <mxCell id="WuL_R7JAxQXP5A3d2cyv-36" value="revisar actividad" style="ellipse;whiteSpace=wrap;html=1;" vertex="1" parent="1">
          <mxGeometry x="2915" y="360" width="120" height="60" as="geometry" />
        </mxCell>
        <mxCell id="WuL_R7JAxQXP5A3d2cyv-37" value="elejir tipo de ejercicios" style="ellipse;whiteSpace=wrap;html=1;" vertex="1" parent="1">
          <mxGeometry x="2915" y="290" width="120" height="60" as="geometry" />
        </mxCell>
        <mxCell id="WuL_R7JAxQXP5A3d2cyv-39" value="EJERCICIOS" style="text;html=1;align=center;verticalAlign=middle;whiteSpace=wrap;rounded=0;" vertex="1" parent="1">
          <mxGeometry x="2945" y="250" width="60" height="30" as="geometry" />
        </mxCell>
        <mxCell id="WuL_R7JAxQXP5A3d2cyv-40" value="" style="ellipse;whiteSpace=wrap;html=1;" vertex="1" parent="1">
          <mxGeometry x="3765" y="570" width="120" height="60" as="geometry" />
        </mxCell>
        <mxCell id="WuL_R7JAxQXP5A3d2cyv-41" value="" style="ellipse;whiteSpace=wrap;html=1;" vertex="1" parent="1">
          <mxGeometry x="3765" y="500" width="120" height="60" as="geometry" />
        </mxCell>
        <mxCell id="WuL_R7JAxQXP5A3d2cyv-42" value="" style="ellipse;whiteSpace=wrap;html=1;" vertex="1" parent="1">
          <mxGeometry x="3765" y="430" width="120" height="60" as="geometry" />
        </mxCell>
        <mxCell id="WuL_R7JAxQXP5A3d2cyv-43" value="" style="ellipse;whiteSpace=wrap;html=1;" vertex="1" parent="1">
          <mxGeometry x="3765" y="360" width="120" height="60" as="geometry" />
        </mxCell>
        <mxCell id="WuL_R7JAxQXP5A3d2cyv-44" value="" style="ellipse;whiteSpace=wrap;html=1;" vertex="1" parent="1">
          <mxGeometry x="3765" y="290" width="120" height="60" as="geometry" />
        </mxCell>
        <mxCell id="WuL_R7JAxQXP5A3d2cyv-45" value="COMINICACION TUTOR-ESPECIALISTA" style="text;html=1;align=center;verticalAlign=middle;whiteSpace=wrap;rounded=0;" vertex="1" parent="1">
          <mxGeometry x="3680" y="250" width="290" height="30" as="geometry" />
        </mxCell>
        <mxCell id="WuL_R7JAxQXP5A3d2cyv-83" style="edgeStyle=orthogonalEdgeStyle;rounded=0;orthogonalLoop=1;jettySize=auto;html=1;entryX=0;entryY=0.5;entryDx=0;entryDy=0;" edge="1" parent="1" source="WuL_R7JAxQXP5A3d2cyv-46" target="WuL_R7JAxQXP5A3d2cyv-10">
          <mxGeometry relative="1" as="geometry">
            <Array as="points">
              <mxPoint x="170" y="315" />
              <mxPoint x="170" y="320" />
            </Array>
          </mxGeometry>
        </mxCell>
        <mxCell id="WuL_R7JAxQXP5A3d2cyv-84" style="edgeStyle=orthogonalEdgeStyle;rounded=0;orthogonalLoop=1;jettySize=auto;html=1;entryX=0;entryY=0.5;entryDx=0;entryDy=0;" edge="1" parent="1" source="WuL_R7JAxQXP5A3d2cyv-46" target="WuL_R7JAxQXP5A3d2cyv-9">
          <mxGeometry relative="1" as="geometry">
            <Array as="points">
              <mxPoint x="170" y="315" />
              <mxPoint x="170" y="390" />
            </Array>
          </mxGeometry>
        </mxCell>
        <mxCell id="WuL_R7JAxQXP5A3d2cyv-85" style="edgeStyle=orthogonalEdgeStyle;rounded=0;orthogonalLoop=1;jettySize=auto;html=1;entryX=0;entryY=0.5;entryDx=0;entryDy=0;" edge="1" parent="1" source="WuL_R7JAxQXP5A3d2cyv-46" target="WuL_R7JAxQXP5A3d2cyv-8">
          <mxGeometry relative="1" as="geometry">
            <Array as="points">
              <mxPoint x="170" y="315" />
              <mxPoint x="170" y="460" />
            </Array>
          </mxGeometry>
        </mxCell>
        <mxCell id="WuL_R7JAxQXP5A3d2cyv-86" style="edgeStyle=orthogonalEdgeStyle;rounded=0;orthogonalLoop=1;jettySize=auto;html=1;entryX=0;entryY=0.5;entryDx=0;entryDy=0;" edge="1" parent="1" source="WuL_R7JAxQXP5A3d2cyv-46" target="WuL_R7JAxQXP5A3d2cyv-5">
          <mxGeometry relative="1" as="geometry">
            <Array as="points">
              <mxPoint x="170" y="315" />
              <mxPoint x="170" y="670" />
            </Array>
          </mxGeometry>
        </mxCell>
        <mxCell id="WuL_R7JAxQXP5A3d2cyv-87" style="edgeStyle=orthogonalEdgeStyle;rounded=0;orthogonalLoop=1;jettySize=auto;html=1;entryX=0;entryY=0.5;entryDx=0;entryDy=0;" edge="1" parent="1" source="WuL_R7JAxQXP5A3d2cyv-46" target="WuL_R7JAxQXP5A3d2cyv-3">
          <mxGeometry relative="1" as="geometry">
            <Array as="points">
              <mxPoint x="170" y="315" />
              <mxPoint x="170" y="810" />
            </Array>
          </mxGeometry>
        </mxCell>
        <mxCell id="WuL_R7JAxQXP5A3d2cyv-46" value="PACIENTE" style="shape=umlActor;verticalLabelPosition=bottom;verticalAlign=top;html=1;outlineConnect=0;" vertex="1" parent="1">
          <mxGeometry x="60" y="270" width="40" height="90" as="geometry" />
        </mxCell>
        <mxCell id="WuL_R7JAxQXP5A3d2cyv-93" style="edgeStyle=orthogonalEdgeStyle;rounded=0;orthogonalLoop=1;jettySize=auto;html=1;entryX=0;entryY=0.5;entryDx=0;entryDy=0;" edge="1" parent="1" source="WuL_R7JAxQXP5A3d2cyv-47" target="WuL_R7JAxQXP5A3d2cyv-7">
          <mxGeometry relative="1" as="geometry">
            <Array as="points">
              <mxPoint x="210" y="875" />
              <mxPoint x="210" y="530" />
            </Array>
          </mxGeometry>
        </mxCell>
        <mxCell id="WuL_R7JAxQXP5A3d2cyv-47" value="ESPECIALISTA" style="shape=umlActor;verticalLabelPosition=bottom;verticalAlign=top;html=1;outlineConnect=0;" vertex="1" parent="1">
          <mxGeometry x="70" y="830" width="40" height="90" as="geometry" />
        </mxCell>
        <mxCell id="WuL_R7JAxQXP5A3d2cyv-100" style="edgeStyle=orthogonalEdgeStyle;rounded=0;orthogonalLoop=1;jettySize=auto;html=1;entryX=1;entryY=0.5;entryDx=0;entryDy=0;" edge="1" parent="1" source="WuL_R7JAxQXP5A3d2cyv-48" target="WuL_R7JAxQXP5A3d2cyv-6">
          <mxGeometry relative="1" as="geometry">
            <Array as="points">
              <mxPoint x="640" y="820" />
              <mxPoint x="640" y="600" />
            </Array>
          </mxGeometry>
        </mxCell>
        <mxCell id="WuL_R7JAxQXP5A3d2cyv-101" style="edgeStyle=orthogonalEdgeStyle;rounded=0;orthogonalLoop=1;jettySize=auto;html=1;entryX=1;entryY=0.5;entryDx=0;entryDy=0;" edge="1" parent="1" source="WuL_R7JAxQXP5A3d2cyv-48" target="WuL_R7JAxQXP5A3d2cyv-4">
          <mxGeometry relative="1" as="geometry">
            <Array as="points">
              <mxPoint x="640" y="820" />
              <mxPoint x="640" y="740" />
            </Array>
          </mxGeometry>
        </mxCell>
        <mxCell id="WuL_R7JAxQXP5A3d2cyv-48" value="ADMINISTRADOR" style="shape=umlActor;verticalLabelPosition=bottom;verticalAlign=top;html=1;outlineConnect=0;" vertex="1" parent="1">
          <mxGeometry x="710" y="770" width="45" height="100" as="geometry" />
        </mxCell>
        <mxCell id="WuL_R7JAxQXP5A3d2cyv-94" style="edgeStyle=orthogonalEdgeStyle;rounded=0;orthogonalLoop=1;jettySize=auto;html=1;entryX=1;entryY=0.5;entryDx=0;entryDy=0;" edge="1" parent="1" source="WuL_R7JAxQXP5A3d2cyv-49" target="WuL_R7JAxQXP5A3d2cyv-10">
          <mxGeometry relative="1" as="geometry">
            <Array as="points">
              <mxPoint x="690" y="235" />
              <mxPoint x="690" y="320" />
            </Array>
          </mxGeometry>
        </mxCell>
        <mxCell id="WuL_R7JAxQXP5A3d2cyv-95" style="edgeStyle=orthogonalEdgeStyle;rounded=0;orthogonalLoop=1;jettySize=auto;html=1;entryX=1;entryY=0.5;entryDx=0;entryDy=0;" edge="1" parent="1" source="WuL_R7JAxQXP5A3d2cyv-49" target="WuL_R7JAxQXP5A3d2cyv-9">
          <mxGeometry relative="1" as="geometry">
            <Array as="points">
              <mxPoint x="690" y="235" />
              <mxPoint x="690" y="390" />
            </Array>
          </mxGeometry>
        </mxCell>
        <mxCell id="WuL_R7JAxQXP5A3d2cyv-96" style="edgeStyle=orthogonalEdgeStyle;rounded=0;orthogonalLoop=1;jettySize=auto;html=1;entryX=1;entryY=0.5;entryDx=0;entryDy=0;" edge="1" parent="1" source="WuL_R7JAxQXP5A3d2cyv-49" target="WuL_R7JAxQXP5A3d2cyv-8">
          <mxGeometry relative="1" as="geometry">
            <Array as="points">
              <mxPoint x="690" y="235" />
              <mxPoint x="690" y="460" />
            </Array>
          </mxGeometry>
        </mxCell>
        <mxCell id="WuL_R7JAxQXP5A3d2cyv-97" style="edgeStyle=orthogonalEdgeStyle;rounded=0;orthogonalLoop=1;jettySize=auto;html=1;entryX=1;entryY=0.5;entryDx=0;entryDy=0;" edge="1" parent="1" source="WuL_R7JAxQXP5A3d2cyv-49" target="WuL_R7JAxQXP5A3d2cyv-7">
          <mxGeometry relative="1" as="geometry">
            <Array as="points">
              <mxPoint x="690" y="235" />
              <mxPoint x="690" y="530" />
            </Array>
          </mxGeometry>
        </mxCell>
        <mxCell id="WuL_R7JAxQXP5A3d2cyv-98" style="edgeStyle=orthogonalEdgeStyle;rounded=0;orthogonalLoop=1;jettySize=auto;html=1;entryX=1;entryY=0.5;entryDx=0;entryDy=0;" edge="1" parent="1" source="WuL_R7JAxQXP5A3d2cyv-49" target="WuL_R7JAxQXP5A3d2cyv-5">
          <mxGeometry relative="1" as="geometry">
            <Array as="points">
              <mxPoint x="690" y="235" />
              <mxPoint x="690" y="670" />
            </Array>
          </mxGeometry>
        </mxCell>
        <mxCell id="WuL_R7JAxQXP5A3d2cyv-99" style="edgeStyle=orthogonalEdgeStyle;rounded=0;orthogonalLoop=1;jettySize=auto;html=1;entryX=1;entryY=0.5;entryDx=0;entryDy=0;" edge="1" parent="1" source="WuL_R7JAxQXP5A3d2cyv-49" target="WuL_R7JAxQXP5A3d2cyv-3">
          <mxGeometry relative="1" as="geometry">
            <Array as="points">
              <mxPoint x="690" y="235" />
              <mxPoint x="690" y="810" />
            </Array>
          </mxGeometry>
        </mxCell>
        <mxCell id="WuL_R7JAxQXP5A3d2cyv-49" value="TUTOR" style="shape=umlActor;verticalLabelPosition=bottom;verticalAlign=top;html=1;outlineConnect=0;" vertex="1" parent="1">
          <mxGeometry x="720" y="190" width="40" height="90" as="geometry" />
        </mxCell>
        <mxCell id="WuL_R7JAxQXP5A3d2cyv-114" style="edgeStyle=orthogonalEdgeStyle;rounded=0;orthogonalLoop=1;jettySize=auto;html=1;entryX=1;entryY=0.5;entryDx=0;entryDy=0;" edge="1" parent="1" source="WuL_R7JAxQXP5A3d2cyv-50" target="WuL_R7JAxQXP5A3d2cyv-21">
          <mxGeometry relative="1" as="geometry">
            <Array as="points">
              <mxPoint x="1530" y="278" />
              <mxPoint x="1530" y="320" />
            </Array>
          </mxGeometry>
        </mxCell>
        <mxCell id="WuL_R7JAxQXP5A3d2cyv-115" style="edgeStyle=orthogonalEdgeStyle;rounded=0;orthogonalLoop=1;jettySize=auto;html=1;entryX=1;entryY=0.5;entryDx=0;entryDy=0;" edge="1" parent="1" source="WuL_R7JAxQXP5A3d2cyv-50" target="WuL_R7JAxQXP5A3d2cyv-20">
          <mxGeometry relative="1" as="geometry">
            <Array as="points">
              <mxPoint x="1530" y="278" />
              <mxPoint x="1530" y="390" />
            </Array>
          </mxGeometry>
        </mxCell>
        <mxCell id="WuL_R7JAxQXP5A3d2cyv-116" style="edgeStyle=orthogonalEdgeStyle;rounded=0;orthogonalLoop=1;jettySize=auto;html=1;entryX=1;entryY=0.5;entryDx=0;entryDy=0;" edge="1" parent="1" source="WuL_R7JAxQXP5A3d2cyv-50" target="WuL_R7JAxQXP5A3d2cyv-19">
          <mxGeometry relative="1" as="geometry">
            <Array as="points">
              <mxPoint x="1530" y="278" />
              <mxPoint x="1530" y="460" />
            </Array>
          </mxGeometry>
        </mxCell>
        <mxCell id="WuL_R7JAxQXP5A3d2cyv-117" style="edgeStyle=orthogonalEdgeStyle;rounded=0;orthogonalLoop=1;jettySize=auto;html=1;entryX=1;entryY=0.5;entryDx=0;entryDy=0;" edge="1" parent="1" source="WuL_R7JAxQXP5A3d2cyv-50" target="WuL_R7JAxQXP5A3d2cyv-18">
          <mxGeometry relative="1" as="geometry">
            <Array as="points">
              <mxPoint x="1530" y="278" />
              <mxPoint x="1530" y="530" />
            </Array>
          </mxGeometry>
        </mxCell>
        <mxCell id="WuL_R7JAxQXP5A3d2cyv-118" style="edgeStyle=orthogonalEdgeStyle;rounded=0;orthogonalLoop=1;jettySize=auto;html=1;entryX=1;entryY=0.5;entryDx=0;entryDy=0;" edge="1" parent="1" source="WuL_R7JAxQXP5A3d2cyv-50" target="WuL_R7JAxQXP5A3d2cyv-14">
          <mxGeometry relative="1" as="geometry">
            <Array as="points">
              <mxPoint x="1530" y="278" />
              <mxPoint x="1530" y="810" />
            </Array>
          </mxGeometry>
        </mxCell>
        <mxCell id="WuL_R7JAxQXP5A3d2cyv-119" style="edgeStyle=orthogonalEdgeStyle;rounded=0;orthogonalLoop=1;jettySize=auto;html=1;entryX=1;entryY=0.5;entryDx=0;entryDy=0;" edge="1" parent="1" source="WuL_R7JAxQXP5A3d2cyv-50" target="WuL_R7JAxQXP5A3d2cyv-17">
          <mxGeometry relative="1" as="geometry">
            <Array as="points">
              <mxPoint x="1530" y="278" />
              <mxPoint x="1530" y="600" />
            </Array>
          </mxGeometry>
        </mxCell>
        <mxCell id="WuL_R7JAxQXP5A3d2cyv-50" value="TUTOR" style="shape=umlActor;verticalLabelPosition=bottom;verticalAlign=top;html=1;outlineConnect=0;" vertex="1" parent="1">
          <mxGeometry x="1570" y="235" width="40" height="85" as="geometry" />
        </mxCell>
        <mxCell id="WuL_R7JAxQXP5A3d2cyv-120" style="edgeStyle=orthogonalEdgeStyle;rounded=0;orthogonalLoop=1;jettySize=auto;html=1;entryX=1;entryY=0.5;entryDx=0;entryDy=0;" edge="1" parent="1" source="WuL_R7JAxQXP5A3d2cyv-51" target="WuL_R7JAxQXP5A3d2cyv-15">
          <mxGeometry relative="1" as="geometry">
            <Array as="points">
              <mxPoint x="1490" y="875" />
              <mxPoint x="1490" y="740" />
            </Array>
          </mxGeometry>
        </mxCell>
        <mxCell id="WuL_R7JAxQXP5A3d2cyv-51" value="ADMINIDTRADOR" style="shape=umlActor;verticalLabelPosition=bottom;verticalAlign=top;html=1;outlineConnect=0;" vertex="1" parent="1">
          <mxGeometry x="1570" y="830" width="40" height="90" as="geometry" />
        </mxCell>
        <mxCell id="WuL_R7JAxQXP5A3d2cyv-107" style="edgeStyle=orthogonalEdgeStyle;rounded=0;orthogonalLoop=1;jettySize=auto;html=1;" edge="1" parent="1" source="WuL_R7JAxQXP5A3d2cyv-52">
          <mxGeometry relative="1" as="geometry">
            <mxPoint x="1210" y="820" as="targetPoint" />
            <Array as="points">
              <mxPoint x="1070" y="775" />
              <mxPoint x="1070" y="820" />
            </Array>
          </mxGeometry>
        </mxCell>
        <mxCell id="WuL_R7JAxQXP5A3d2cyv-108" style="edgeStyle=orthogonalEdgeStyle;rounded=0;orthogonalLoop=1;jettySize=auto;html=1;entryX=0;entryY=0.5;entryDx=0;entryDy=0;" edge="1" parent="1" source="WuL_R7JAxQXP5A3d2cyv-52" target="WuL_R7JAxQXP5A3d2cyv-15">
          <mxGeometry relative="1" as="geometry" />
        </mxCell>
        <mxCell id="WuL_R7JAxQXP5A3d2cyv-109" style="edgeStyle=orthogonalEdgeStyle;rounded=0;orthogonalLoop=1;jettySize=auto;html=1;entryX=0;entryY=0.5;entryDx=0;entryDy=0;" edge="1" parent="1" source="WuL_R7JAxQXP5A3d2cyv-52" target="WuL_R7JAxQXP5A3d2cyv-17">
          <mxGeometry relative="1" as="geometry">
            <Array as="points">
              <mxPoint x="1070" y="775" />
              <mxPoint x="1070" y="600" />
            </Array>
          </mxGeometry>
        </mxCell>
        <mxCell id="WuL_R7JAxQXP5A3d2cyv-110" style="edgeStyle=orthogonalEdgeStyle;rounded=0;orthogonalLoop=1;jettySize=auto;html=1;entryX=0;entryY=0.5;entryDx=0;entryDy=0;" edge="1" parent="1" source="WuL_R7JAxQXP5A3d2cyv-52" target="WuL_R7JAxQXP5A3d2cyv-19">
          <mxGeometry relative="1" as="geometry">
            <Array as="points">
              <mxPoint x="1070" y="775" />
              <mxPoint x="1070" y="460" />
            </Array>
          </mxGeometry>
        </mxCell>
        <mxCell id="WuL_R7JAxQXP5A3d2cyv-111" style="edgeStyle=orthogonalEdgeStyle;rounded=0;orthogonalLoop=1;jettySize=auto;html=1;entryX=0;entryY=0.5;entryDx=0;entryDy=0;" edge="1" parent="1" source="WuL_R7JAxQXP5A3d2cyv-52" target="WuL_R7JAxQXP5A3d2cyv-18">
          <mxGeometry relative="1" as="geometry">
            <Array as="points">
              <mxPoint x="1070" y="775" />
              <mxPoint x="1070" y="530" />
            </Array>
          </mxGeometry>
        </mxCell>
        <mxCell id="WuL_R7JAxQXP5A3d2cyv-112" style="edgeStyle=orthogonalEdgeStyle;rounded=0;orthogonalLoop=1;jettySize=auto;html=1;entryX=0;entryY=0.5;entryDx=0;entryDy=0;" edge="1" parent="1" source="WuL_R7JAxQXP5A3d2cyv-52" target="WuL_R7JAxQXP5A3d2cyv-20">
          <mxGeometry relative="1" as="geometry">
            <Array as="points">
              <mxPoint x="1070" y="775" />
              <mxPoint x="1070" y="390" />
            </Array>
          </mxGeometry>
        </mxCell>
        <mxCell id="WuL_R7JAxQXP5A3d2cyv-52" value="ESPECIALISTA" style="shape=umlActor;verticalLabelPosition=bottom;verticalAlign=top;html=1;outlineConnect=0;" vertex="1" parent="1">
          <mxGeometry x="925" y="730" width="35" height="90" as="geometry" />
        </mxCell>
        <mxCell id="WuL_R7JAxQXP5A3d2cyv-104" style="edgeStyle=orthogonalEdgeStyle;rounded=0;orthogonalLoop=1;jettySize=auto;html=1;entryX=0;entryY=0.5;entryDx=0;entryDy=0;" edge="1" parent="1" source="WuL_R7JAxQXP5A3d2cyv-53" target="WuL_R7JAxQXP5A3d2cyv-21">
          <mxGeometry relative="1" as="geometry">
            <Array as="points">
              <mxPoint x="1000" y="208" />
              <mxPoint x="1000" y="320" />
            </Array>
          </mxGeometry>
        </mxCell>
        <mxCell id="WuL_R7JAxQXP5A3d2cyv-105" style="edgeStyle=orthogonalEdgeStyle;rounded=0;orthogonalLoop=1;jettySize=auto;html=1;entryX=0;entryY=0.5;entryDx=0;entryDy=0;" edge="1" parent="1" source="WuL_R7JAxQXP5A3d2cyv-53" target="WuL_R7JAxQXP5A3d2cyv-16">
          <mxGeometry relative="1" as="geometry">
            <Array as="points">
              <mxPoint x="1000" y="208" />
              <mxPoint x="1000" y="670" />
            </Array>
          </mxGeometry>
        </mxCell>
        <mxCell id="WuL_R7JAxQXP5A3d2cyv-106" style="edgeStyle=orthogonalEdgeStyle;rounded=0;orthogonalLoop=1;jettySize=auto;html=1;entryX=0;entryY=0.5;entryDx=0;entryDy=0;" edge="1" parent="1" source="WuL_R7JAxQXP5A3d2cyv-53" target="WuL_R7JAxQXP5A3d2cyv-14">
          <mxGeometry relative="1" as="geometry">
            <Array as="points">
              <mxPoint x="1000" y="208" />
              <mxPoint x="1000" y="810" />
            </Array>
          </mxGeometry>
        </mxCell>
        <mxCell id="WuL_R7JAxQXP5A3d2cyv-53" value="PACIENTE" style="shape=umlActor;verticalLabelPosition=bottom;verticalAlign=top;html=1;outlineConnect=0;" vertex="1" parent="1">
          <mxGeometry x="920" y="165" width="40" height="85" as="geometry" />
        </mxCell>
        <mxCell id="WuL_R7JAxQXP5A3d2cyv-55" value="Actor" style="shape=umlActor;verticalLabelPosition=bottom;verticalAlign=top;html=1;outlineConnect=0;" vertex="1" parent="1">
          <mxGeometry x="3270" y="230" width="40" height="90" as="geometry" />
        </mxCell>
        <mxCell id="WuL_R7JAxQXP5A3d2cyv-56" value="Actor" style="shape=umlActor;verticalLabelPosition=bottom;verticalAlign=top;html=1;outlineConnect=0;" vertex="1" parent="1">
          <mxGeometry x="3300" y="745" width="30" height="85" as="geometry" />
        </mxCell>
        <mxCell id="WuL_R7JAxQXP5A3d2cyv-57" value="Actor" style="shape=umlActor;verticalLabelPosition=bottom;verticalAlign=top;html=1;outlineConnect=0;" vertex="1" parent="1">
          <mxGeometry x="2620" y="760" width="40" height="90" as="geometry" />
        </mxCell>
        <mxCell id="WuL_R7JAxQXP5A3d2cyv-58" value="Actor" style="shape=umlActor;verticalLabelPosition=bottom;verticalAlign=top;html=1;outlineConnect=0;" vertex="1" parent="1">
          <mxGeometry x="2630" y="260" width="40" height="90" as="geometry" />
        </mxCell>
        <mxCell id="WuL_R7JAxQXP5A3d2cyv-130" style="edgeStyle=orthogonalEdgeStyle;rounded=0;orthogonalLoop=1;jettySize=auto;html=1;entryX=0;entryY=0.5;entryDx=0;entryDy=0;" edge="1" parent="1" source="WuL_R7JAxQXP5A3d2cyv-59" target="WuL_R7JAxQXP5A3d2cyv-29">
          <mxGeometry relative="1" as="geometry">
            <Array as="points">
              <mxPoint x="1920" y="835" />
              <mxPoint x="1920" y="600" />
            </Array>
          </mxGeometry>
        </mxCell>
        <mxCell id="WuL_R7JAxQXP5A3d2cyv-59" value="ESPECIALISTA" style="shape=umlActor;verticalLabelPosition=bottom;verticalAlign=top;html=1;outlineConnect=0;" vertex="1" parent="1">
          <mxGeometry x="1795" y="790" width="35" height="90" as="geometry" />
        </mxCell>
        <mxCell id="WuL_R7JAxQXP5A3d2cyv-128" style="edgeStyle=orthogonalEdgeStyle;rounded=0;orthogonalLoop=1;jettySize=auto;html=1;" edge="1" parent="1" source="WuL_R7JAxQXP5A3d2cyv-60" target="WuL_R7JAxQXP5A3d2cyv-28">
          <mxGeometry relative="1" as="geometry">
            <Array as="points">
              <mxPoint x="1880" y="325" />
              <mxPoint x="1880" y="320" />
            </Array>
          </mxGeometry>
        </mxCell>
        <mxCell id="WuL_R7JAxQXP5A3d2cyv-129" style="edgeStyle=orthogonalEdgeStyle;rounded=0;orthogonalLoop=1;jettySize=auto;html=1;entryX=0;entryY=0.5;entryDx=0;entryDy=0;" edge="1" parent="1" source="WuL_R7JAxQXP5A3d2cyv-60" target="WuL_R7JAxQXP5A3d2cyv-25">
          <mxGeometry relative="1" as="geometry">
            <Array as="points">
              <mxPoint x="1880" y="325" />
              <mxPoint x="1880" y="530" />
            </Array>
          </mxGeometry>
        </mxCell>
        <mxCell id="WuL_R7JAxQXP5A3d2cyv-60" value="PACIENTE" style="shape=umlActor;verticalLabelPosition=bottom;verticalAlign=top;html=1;outlineConnect=0;" vertex="1" parent="1">
          <mxGeometry x="1790" y="280" width="40" height="90" as="geometry" />
        </mxCell>
        <mxCell id="WuL_R7JAxQXP5A3d2cyv-132" style="edgeStyle=orthogonalEdgeStyle;rounded=0;orthogonalLoop=1;jettySize=auto;html=1;entryX=1;entryY=0.5;entryDx=0;entryDy=0;" edge="1" parent="1" source="WuL_R7JAxQXP5A3d2cyv-61" target="WuL_R7JAxQXP5A3d2cyv-27">
          <mxGeometry relative="1" as="geometry">
            <Array as="points">
              <mxPoint x="2320" y="715" />
              <mxPoint x="2320" y="390" />
            </Array>
          </mxGeometry>
        </mxCell>
        <mxCell id="WuL_R7JAxQXP5A3d2cyv-133" style="edgeStyle=orthogonalEdgeStyle;rounded=0;orthogonalLoop=1;jettySize=auto;html=1;entryX=1;entryY=0.5;entryDx=0;entryDy=0;" edge="1" parent="1" source="WuL_R7JAxQXP5A3d2cyv-61" target="WuL_R7JAxQXP5A3d2cyv-26">
          <mxGeometry relative="1" as="geometry">
            <Array as="points">
              <mxPoint x="2320" y="715" />
              <mxPoint x="2320" y="460" />
            </Array>
          </mxGeometry>
        </mxCell>
        <mxCell id="WuL_R7JAxQXP5A3d2cyv-61" value="ADMINISTRADOR" style="shape=umlActor;verticalLabelPosition=bottom;verticalAlign=top;html=1;outlineConnect=0;" vertex="1" parent="1">
          <mxGeometry x="2440" y="670" width="40" height="90" as="geometry" />
        </mxCell>
        <mxCell id="WuL_R7JAxQXP5A3d2cyv-134" style="edgeStyle=orthogonalEdgeStyle;rounded=0;orthogonalLoop=1;jettySize=auto;html=1;entryX=1;entryY=0.5;entryDx=0;entryDy=0;" edge="1" parent="1" source="WuL_R7JAxQXP5A3d2cyv-62" target="WuL_R7JAxQXP5A3d2cyv-25">
          <mxGeometry relative="1" as="geometry">
            <Array as="points">
              <mxPoint x="2320" y="215" />
              <mxPoint x="2320" y="530" />
            </Array>
          </mxGeometry>
        </mxCell>
        <mxCell id="WuL_R7JAxQXP5A3d2cyv-62" value="TUTOR" style="shape=umlActor;verticalLabelPosition=bottom;verticalAlign=top;html=1;outlineConnect=0;" vertex="1" parent="1">
          <mxGeometry x="2430" y="170" width="40" height="90" as="geometry" />
        </mxCell>
        <mxCell id="WuL_R7JAxQXP5A3d2cyv-64" value="Actor" style="shape=umlActor;verticalLabelPosition=bottom;verticalAlign=top;html=1;outlineConnect=0;" vertex="1" parent="1">
          <mxGeometry x="3480" y="700" width="40" height="90" as="geometry" />
        </mxCell>
        <mxCell id="WuL_R7JAxQXP5A3d2cyv-65" value="Actor" style="shape=umlActor;verticalLabelPosition=bottom;verticalAlign=top;html=1;outlineConnect=0;" vertex="1" parent="1">
          <mxGeometry x="3490" y="185" width="40" height="85" as="geometry" />
        </mxCell>
        <mxCell id="WuL_R7JAxQXP5A3d2cyv-66" value="Actor" style="shape=umlActor;verticalLabelPosition=bottom;verticalAlign=top;html=1;outlineConnect=0;" vertex="1" parent="1">
          <mxGeometry x="4140" y="690" width="40" height="90" as="geometry" />
        </mxCell>
        <mxCell id="WuL_R7JAxQXP5A3d2cyv-67" value="Actor" style="shape=umlActor;verticalLabelPosition=bottom;verticalAlign=top;html=1;outlineConnect=0;" vertex="1" parent="1">
          <mxGeometry x="4130" y="210" width="40" height="90" as="geometry" />
        </mxCell>
        <mxCell id="WuL_R7JAxQXP5A3d2cyv-68" value="" style="rounded=0;whiteSpace=wrap;html=1;" vertex="1" parent="1">
          <mxGeometry x="255" y="1310" width="340" height="680" as="geometry" />
        </mxCell>
        <mxCell id="WuL_R7JAxQXP5A3d2cyv-69" value="" style="rounded=0;whiteSpace=wrap;html=1;" vertex="1" parent="1">
          <mxGeometry x="1958" y="1310" width="335" height="620" as="geometry" />
        </mxCell>
        <mxCell id="WuL_R7JAxQXP5A3d2cyv-70" value="" style="rounded=0;whiteSpace=wrap;html=1;" vertex="1" parent="1">
          <mxGeometry x="2805" y="1310" width="340" height="680" as="geometry" />
        </mxCell>
        <mxCell id="WuL_R7JAxQXP5A3d2cyv-71" value="" style="rounded=0;whiteSpace=wrap;html=1;" vertex="1" parent="1">
          <mxGeometry x="1105" y="1310" width="340" height="690" as="geometry" />
        </mxCell>
        <mxCell id="WuL_R7JAxQXP5A3d2cyv-72" value="" style="rounded=0;whiteSpace=wrap;html=1;" vertex="1" parent="1">
          <mxGeometry x="3610" y="1310" width="340" height="640" as="geometry" />
        </mxCell>
        <mxCell id="WuL_R7JAxQXP5A3d2cyv-73" value="" style="ellipse;whiteSpace=wrap;html=1;" vertex="1" parent="1">
          <mxGeometry x="1215" y="1440" width="120" height="70" as="geometry" />
        </mxCell>
        <mxCell id="WuL_R7JAxQXP5A3d2cyv-74" value="" style="ellipse;whiteSpace=wrap;html=1;" vertex="1" parent="1">
          <mxGeometry x="1215" y="1370" width="120" height="60" as="geometry" />
        </mxCell>
        <mxCell id="WuL_R7JAxQXP5A3d2cyv-75" value="" style="ellipse;whiteSpace=wrap;html=1;" vertex="1" parent="1">
          <mxGeometry x="365" y="1880" width="120" height="60" as="geometry" />
        </mxCell>
        <mxCell id="WuL_R7JAxQXP5A3d2cyv-76" value="" style="ellipse;whiteSpace=wrap;html=1;" vertex="1" parent="1">
          <mxGeometry x="365" y="1810" width="120" height="60" as="geometry" />
        </mxCell>
        <mxCell id="WuL_R7JAxQXP5A3d2cyv-77" value="" style="ellipse;whiteSpace=wrap;html=1;" vertex="1" parent="1">
          <mxGeometry x="365" y="1740" width="120" height="60" as="geometry" />
        </mxCell>
        <mxCell id="WuL_R7JAxQXP5A3d2cyv-78" value="" style="ellipse;whiteSpace=wrap;html=1;" vertex="1" parent="1">
          <mxGeometry x="365" y="1670" width="120" height="60" as="geometry" />
        </mxCell>
        <mxCell id="WuL_R7JAxQXP5A3d2cyv-79" value="" style="ellipse;whiteSpace=wrap;html=1;" vertex="1" parent="1">
          <mxGeometry x="365" y="1600" width="120" height="60" as="geometry" />
        </mxCell>
        <mxCell id="WuL_R7JAxQXP5A3d2cyv-80" value="" style="ellipse;whiteSpace=wrap;html=1;" vertex="1" parent="1">
          <mxGeometry x="365" y="1530" width="120" height="60" as="geometry" />
        </mxCell>
        <mxCell id="WuL_R7JAxQXP5A3d2cyv-81" value="" style="ellipse;whiteSpace=wrap;html=1;" vertex="1" parent="1">
          <mxGeometry x="365" y="1460" width="120" height="60" as="geometry" />
        </mxCell>
        <mxCell id="WuL_R7JAxQXP5A3d2cyv-82" value="" style="ellipse;whiteSpace=wrap;html=1;" vertex="1" parent="1">
          <mxGeometry x="365" y="1390" width="120" height="60" as="geometry" />
        </mxCell>
        <mxCell id="WuL_R7JAxQXP5A3d2cyv-88" style="edgeStyle=orthogonalEdgeStyle;rounded=0;orthogonalLoop=1;jettySize=auto;html=1;entryX=0.038;entryY=0.743;entryDx=0;entryDy=0;entryPerimeter=0;" edge="1" parent="1" source="WuL_R7JAxQXP5A3d2cyv-47" target="WuL_R7JAxQXP5A3d2cyv-3">
          <mxGeometry relative="1" as="geometry">
            <Array as="points">
              <mxPoint x="210" y="875" />
              <mxPoint x="210" y="825" />
            </Array>
          </mxGeometry>
        </mxCell>
        <mxCell id="WuL_R7JAxQXP5A3d2cyv-89" style="edgeStyle=orthogonalEdgeStyle;rounded=0;orthogonalLoop=1;jettySize=auto;html=1;entryX=0.002;entryY=0.719;entryDx=0;entryDy=0;entryPerimeter=0;" edge="1" parent="1" source="WuL_R7JAxQXP5A3d2cyv-47" target="WuL_R7JAxQXP5A3d2cyv-5">
          <mxGeometry relative="1" as="geometry">
            <Array as="points">
              <mxPoint x="210" y="875" />
              <mxPoint x="210" y="683" />
            </Array>
          </mxGeometry>
        </mxCell>
        <mxCell id="WuL_R7JAxQXP5A3d2cyv-90" style="edgeStyle=orthogonalEdgeStyle;rounded=0;orthogonalLoop=1;jettySize=auto;html=1;entryX=0.002;entryY=0.695;entryDx=0;entryDy=0;entryPerimeter=0;" edge="1" parent="1" source="WuL_R7JAxQXP5A3d2cyv-47" target="WuL_R7JAxQXP5A3d2cyv-8">
          <mxGeometry relative="1" as="geometry">
            <Array as="points">
              <mxPoint x="210" y="875" />
              <mxPoint x="210" y="472" />
            </Array>
          </mxGeometry>
        </mxCell>
        <mxCell id="WuL_R7JAxQXP5A3d2cyv-91" style="edgeStyle=orthogonalEdgeStyle;rounded=0;orthogonalLoop=1;jettySize=auto;html=1;entryX=0.002;entryY=0.719;entryDx=0;entryDy=0;entryPerimeter=0;" edge="1" parent="1" source="WuL_R7JAxQXP5A3d2cyv-47" target="WuL_R7JAxQXP5A3d2cyv-9">
          <mxGeometry relative="1" as="geometry">
            <Array as="points">
              <mxPoint x="210" y="875" />
              <mxPoint x="210" y="403" />
            </Array>
          </mxGeometry>
        </mxCell>
        <mxCell id="WuL_R7JAxQXP5A3d2cyv-92" style="edgeStyle=orthogonalEdgeStyle;rounded=0;orthogonalLoop=1;jettySize=auto;html=1;entryX=0.353;entryY=0.156;entryDx=0;entryDy=0;entryPerimeter=0;" edge="1" parent="1" source="WuL_R7JAxQXP5A3d2cyv-47" target="WuL_R7JAxQXP5A3d2cyv-1">
          <mxGeometry relative="1" as="geometry">
            <Array as="points">
              <mxPoint x="210" y="875" />
              <mxPoint x="210" y="330" />
            </Array>
          </mxGeometry>
        </mxCell>
        <mxCell id="WuL_R7JAxQXP5A3d2cyv-113" style="edgeStyle=orthogonalEdgeStyle;rounded=0;orthogonalLoop=1;jettySize=auto;html=1;entryX=0.014;entryY=0.79;entryDx=0;entryDy=0;entryPerimeter=0;" edge="1" parent="1" source="WuL_R7JAxQXP5A3d2cyv-52" target="WuL_R7JAxQXP5A3d2cyv-21">
          <mxGeometry relative="1" as="geometry">
            <Array as="points">
              <mxPoint x="1070" y="775" />
              <mxPoint x="1070" y="337" />
            </Array>
          </mxGeometry>
        </mxCell>
        <mxCell id="WuL_R7JAxQXP5A3d2cyv-121" style="edgeStyle=orthogonalEdgeStyle;rounded=0;orthogonalLoop=1;jettySize=auto;html=1;entryX=0.662;entryY=0.592;entryDx=0;entryDy=0;entryPerimeter=0;" edge="1" parent="1" source="WuL_R7JAxQXP5A3d2cyv-51" target="WuL_R7JAxQXP5A3d2cyv-12">
          <mxGeometry relative="1" as="geometry">
            <Array as="points">
              <mxPoint x="1490" y="875" />
              <mxPoint x="1490" y="610" />
            </Array>
          </mxGeometry>
        </mxCell>
        <mxCell id="WuL_R7JAxQXP5A3d2cyv-122" style="edgeStyle=orthogonalEdgeStyle;rounded=0;orthogonalLoop=1;jettySize=auto;html=1;entryX=1.002;entryY=0.671;entryDx=0;entryDy=0;entryPerimeter=0;" edge="1" parent="1" source="WuL_R7JAxQXP5A3d2cyv-51" target="WuL_R7JAxQXP5A3d2cyv-18">
          <mxGeometry relative="1" as="geometry">
            <Array as="points">
              <mxPoint x="1490" y="875" />
              <mxPoint x="1490" y="540" />
            </Array>
          </mxGeometry>
        </mxCell>
        <mxCell id="WuL_R7JAxQXP5A3d2cyv-123" style="edgeStyle=orthogonalEdgeStyle;rounded=0;orthogonalLoop=1;jettySize=auto;html=1;entryX=1.002;entryY=0.671;entryDx=0;entryDy=0;entryPerimeter=0;" edge="1" parent="1" source="WuL_R7JAxQXP5A3d2cyv-51" target="WuL_R7JAxQXP5A3d2cyv-19">
          <mxGeometry relative="1" as="geometry">
            <Array as="points">
              <mxPoint x="1490" y="875" />
              <mxPoint x="1490" y="470" />
            </Array>
          </mxGeometry>
        </mxCell>
        <mxCell id="WuL_R7JAxQXP5A3d2cyv-124" style="edgeStyle=orthogonalEdgeStyle;rounded=0;orthogonalLoop=1;jettySize=auto;html=1;entryX=0.662;entryY=0.269;entryDx=0;entryDy=0;entryPerimeter=0;" edge="1" parent="1" source="WuL_R7JAxQXP5A3d2cyv-51" target="WuL_R7JAxQXP5A3d2cyv-12">
          <mxGeometry relative="1" as="geometry">
            <Array as="points">
              <mxPoint x="1490" y="875" />
              <mxPoint x="1490" y="400" />
            </Array>
          </mxGeometry>
        </mxCell>
        <mxCell id="WuL_R7JAxQXP5A3d2cyv-125" style="edgeStyle=orthogonalEdgeStyle;rounded=0;orthogonalLoop=1;jettySize=auto;html=1;entryX=1.002;entryY=0.743;entryDx=0;entryDy=0;entryPerimeter=0;" edge="1" parent="1" source="WuL_R7JAxQXP5A3d2cyv-51" target="WuL_R7JAxQXP5A3d2cyv-21">
          <mxGeometry relative="1" as="geometry">
            <Array as="points">
              <mxPoint x="1490" y="875" />
              <mxPoint x="1490" y="335" />
            </Array>
          </mxGeometry>
        </mxCell>
        <mxCell id="WuL_R7JAxQXP5A3d2cyv-131" style="edgeStyle=orthogonalEdgeStyle;rounded=0;orthogonalLoop=1;jettySize=auto;html=1;entryX=0.002;entryY=0.671;entryDx=0;entryDy=0;entryPerimeter=0;" edge="1" parent="1" source="WuL_R7JAxQXP5A3d2cyv-59" target="WuL_R7JAxQXP5A3d2cyv-28">
          <mxGeometry relative="1" as="geometry">
            <Array as="points">
              <mxPoint x="1920" y="835" />
              <mxPoint x="1920" y="330" />
            </Array>
          </mxGeometry>
        </mxCell>
      </root>
    </mxGraphModel>
  </diagram>
</mxfile>
